<svg height="48" viewBox="0 0 48 48" width="48" xmlns="http://www.w3.org/2000/svg"><path d="m0 0h48v48h-48z" fill="none"/><path d="m8 6.2v20.1a6.2 6.2 0 0 0 -4 5.7 6 6 0 0 0 4 5.6v4.2a2.1 2.1 0 0 0 2 2.2 2.1 2.1 0 0 0 2-2.2v-4.2a6 6 0 0 0 4-5.6 6.2 6.2 0 0 0 -4-5.7v-20.1a2.1 2.1 0 0 0 -2-2.2 2.1 2.1 0 0 0 -2 2.2zm4 25.8a2 2 0 1 1 -2-2 2 2 0 0 1 2 2z"/><path d="m22 6.2v4.1a6.2 6.2 0 0 0 -4 5.7 6 6 0 0 0 4 5.6v20.2a2 2 0 1 0 4 0v-20.2a6 6 0 0 0 4-5.6 6.2 6.2 0 0 0 -4-5.7v-4.1a2 2 0 1 0 -4 0zm4 9.8a2 2 0 1 1 -2-2 2 2 0 0 1 2 2z"/><path d="m36 6.2v17.1a6.2 6.2 0 0 0 -4 5.7 6 6 0 0 0 4 5.6v7.2a2 2 0 1 0 4 0v-7.2a6 6 0 0 0 4-5.6 6.2 6.2 0 0 0 -4-5.7v-17.1a2 2 0 1 0 -4 0zm4 22.8a2 2 0 1 1 -2-2 2 2 0 0 1 2 2z"/></svg>